<svg width="333" height="64" viewBox="0 0 333 64" fill="none" xmlns="http://www.w3.org/2000/svg">
<g clip-path="url(#clip0_503_6)">
<path d="M12.2567 51H1.54652L17.8658 3.72727H30.7457L47.0419 51H36.3317L24.4904 14.5298H24.1211L12.2567 51ZM11.5874 32.4187H36.8857V40.2205H11.5874V32.4187ZM66.9158 51.6925C63.2842 51.6925 60.1604 50.9231 57.5444 49.3842C54.9438 47.83 52.9433 45.6757 51.543 42.9212C50.158 40.1667 49.4656 36.9967 49.4656 33.4112C49.4656 29.7796 50.1657 26.5942 51.5661 23.8551C52.9818 21.1006 54.9899 18.954 57.5906 17.4151C60.1912 15.8609 63.2842 15.0838 66.8697 15.0838C69.9627 15.0838 72.671 15.6455 74.9947 16.7688C77.3183 17.8922 79.1572 19.4695 80.5114 21.5007C81.8655 23.532 82.6119 25.9171 82.7504 28.6562H73.4712C73.2096 26.8866 72.5172 25.4632 71.3938 24.386C70.2859 23.2934 68.8317 22.7472 67.0312 22.7472C65.5078 22.7472 64.1767 23.1626 63.038 23.9936C61.9147 24.8092 61.0375 26.0018 60.4066 27.5714C59.7757 29.141 59.4602 31.0414 59.4602 33.2727C59.4602 35.5348 59.768 37.4583 60.3835 39.0433C61.0144 40.6283 61.8993 41.8363 63.038 42.6673C64.1767 43.4982 65.5078 43.9137 67.0312 43.9137C68.1546 43.9137 69.1625 43.6829 70.055 43.2212C70.963 42.7596 71.7093 42.0902 72.294 41.2131C72.8942 40.3205 73.2866 39.2511 73.4712 38.0046H82.7504C82.5965 40.7129 81.8578 43.0981 80.5344 45.1602C79.2264 47.2068 77.4183 48.8072 75.1101 49.9613C72.8018 51.1154 70.0704 51.6925 66.9158 51.6925ZM105.204 51.6925C101.557 51.6925 98.4175 50.9538 95.7861 49.4766C93.1701 47.9839 91.1543 45.8757 89.7385 43.152C88.3228 40.4129 87.615 37.1736 87.615 33.4343C87.615 29.7873 88.3228 26.5865 89.7385 23.832C91.1543 21.0775 93.147 18.9309 95.7169 17.392C98.3021 15.8532 101.334 15.0838 104.811 15.0838C107.15 15.0838 109.328 15.4608 111.344 16.2148C113.375 16.9535 115.145 18.0691 116.653 19.5618C118.176 21.0545 119.361 22.9318 120.207 25.1939C121.054 27.4406 121.477 30.072 121.477 33.0881V35.7887H91.539V29.695H112.221C112.221 28.2792 111.913 27.0251 111.297 25.9325C110.682 24.84 109.828 23.9859 108.735 23.3704C107.658 22.7395 106.404 22.424 104.973 22.424C103.48 22.424 102.157 22.7702 101.003 23.4627C99.864 24.1398 98.9715 25.0554 98.3252 26.2095C97.6789 27.3482 97.348 28.6178 97.3327 30.0181V35.8118C97.3327 37.5661 97.6558 39.0818 98.3021 40.359C98.9638 41.6362 99.8948 42.6211 101.095 43.3136C102.295 44.006 103.719 44.3523 105.365 44.3523C106.458 44.3523 107.458 44.1984 108.366 43.8906C109.274 43.5829 110.051 43.1212 110.697 42.5057C111.344 41.8902 111.836 41.1361 112.175 40.2436L121.269 40.8438C120.807 43.0289 119.861 44.937 118.43 46.5682C117.014 48.1839 115.183 49.4458 112.936 50.3537C110.705 51.2462 108.128 51.6925 105.204 51.6925ZM146.752 15.5455V22.9318H125.401V15.5455H146.752ZM130.248 7.05114H140.081V40.1051C140.081 41.013 140.22 41.7209 140.497 42.2287C140.774 42.7211 141.158 43.0674 141.651 43.2674C142.159 43.4674 142.743 43.5675 143.405 43.5675C143.867 43.5675 144.328 43.529 144.79 43.4521C145.252 43.3597 145.606 43.2905 145.852 43.2443L147.398 50.5614C146.906 50.7153 146.213 50.8923 145.321 51.0923C144.428 51.3078 143.344 51.4386 142.066 51.4847C139.697 51.5771 137.619 51.2616 135.834 50.5384C134.064 49.8151 132.687 48.6918 131.702 47.1683C130.717 45.6449 130.233 43.7214 130.248 41.3977V7.05114ZM168.934 51.6925C165.287 51.6925 162.148 50.9538 159.517 49.4766C156.901 47.9839 154.885 45.8757 153.469 43.152C152.053 40.4129 151.345 37.1736 151.345 33.4343C151.345 29.7873 152.053 26.5865 153.469 23.832C154.885 21.0775 156.878 18.9309 159.447 17.392C162.033 15.8532 165.064 15.0838 168.542 15.0838C170.881 15.0838 173.058 15.4608 175.074 16.2148C177.105 16.9535 178.875 18.0691 180.383 19.5618C181.907 21.0545 183.091 22.9318 183.938 25.1939C184.784 27.4406 185.207 30.072 185.207 33.0881V35.7887H155.269V29.695H175.951C175.951 28.2792 175.643 27.0251 175.028 25.9325C174.412 24.84 173.558 23.9859 172.466 23.3704C171.389 22.7395 170.135 22.424 168.703 22.424C167.211 22.424 165.887 22.7702 164.733 23.4627C163.594 24.1398 162.702 25.0554 162.056 26.2095C161.409 27.3482 161.079 28.6178 161.063 30.0181V35.8118C161.063 37.5661 161.386 39.0818 162.033 40.359C162.694 41.6362 163.625 42.6211 164.826 43.3136C166.026 44.006 167.449 44.3523 169.096 44.3523C170.188 44.3523 171.189 44.1984 172.097 43.8906C173.004 43.5829 173.782 43.1212 174.428 42.5057C175.074 41.8902 175.567 41.1361 175.905 40.2436L185 40.8438C184.538 43.0289 183.592 44.937 182.16 46.5682C180.745 48.1839 178.914 49.4458 176.667 50.3537C174.436 51.2462 171.858 51.6925 168.934 51.6925ZM191.624 51V15.5455H201.157V21.7315H201.527C202.173 19.531 203.258 17.8691 204.781 16.7457C206.305 15.607 208.059 15.0376 210.044 15.0376C210.536 15.0376 211.067 15.0684 211.637 15.13C212.206 15.1915 212.706 15.2762 213.137 15.3839V24.109C212.675 23.9705 212.037 23.8474 211.221 23.7397C210.406 23.632 209.659 23.5781 208.982 23.5781C207.536 23.5781 206.243 23.8936 205.104 24.5245C203.981 25.14 203.088 26.0018 202.427 27.1097C201.78 28.2177 201.457 29.4949 201.457 30.9414V51H191.624ZM228.054 30.5028V51H218.221V15.5455H227.592V21.8008H228.008C228.793 19.7388 230.108 18.1076 231.955 16.9073C233.801 15.6916 236.04 15.0838 238.672 15.0838C241.134 15.0838 243.281 15.6224 245.112 16.6996C246.943 17.7768 248.366 19.3156 249.382 21.316C250.398 23.3011 250.906 25.6709 250.906 28.4254V51H241.072V30.1797C241.088 28.0099 240.534 26.3172 239.411 25.1016C238.287 23.8705 236.741 23.255 234.771 23.255C233.448 23.255 232.278 23.5397 231.262 24.109C230.262 24.6784 229.477 25.5094 228.908 26.6019C228.354 27.6791 228.069 28.9794 228.054 30.5028ZM258.655 51V15.5455H268.489V51H258.655ZM263.595 10.9751C262.133 10.9751 260.879 10.4904 259.833 9.52095C258.802 8.5361 258.286 7.3589 258.286 5.98934C258.286 4.63518 258.802 3.47337 259.833 2.50391C260.879 1.51906 262.133 1.02663 263.595 1.02663C265.057 1.02663 266.303 1.51906 267.334 2.50391C268.381 3.47337 268.904 4.63518 268.904 5.98934C268.904 7.3589 268.381 8.5361 267.334 9.52095C266.303 10.4904 265.057 10.9751 263.595 10.9751ZM295.224 15.5455V22.9318H273.873V15.5455H295.224ZM278.72 7.05114H288.553V40.1051C288.553 41.013 288.691 41.7209 288.968 42.2287C289.245 42.7211 289.63 43.0674 290.123 43.2674C290.63 43.4674 291.215 43.5675 291.877 43.5675C292.338 43.5675 292.8 43.529 293.262 43.4521C293.723 43.3597 294.077 43.2905 294.324 43.2443L295.87 50.5614C295.378 50.7153 294.685 50.8923 293.793 51.0923C292.9 51.3078 291.815 51.4386 290.538 51.4847C288.168 51.5771 286.091 51.2616 284.306 50.5384C282.536 49.8151 281.159 48.6918 280.174 47.1683C279.189 45.6449 278.704 43.7214 278.72 41.3977V7.05114ZM307.7 64.2955C306.453 64.2955 305.284 64.1954 304.191 63.9954C303.114 63.8107 302.222 63.5722 301.514 63.2798L303.73 55.9396C304.884 56.2936 305.922 56.4859 306.846 56.5167C307.784 56.5475 308.592 56.332 309.269 55.8704C309.962 55.4087 310.523 54.6239 310.954 53.516L311.531 52.0156L298.813 15.5455H309.154L316.494 41.5824H316.863L324.273 15.5455H334.683L320.903 54.8317C320.241 56.7398 319.341 58.4018 318.202 59.8175C317.079 61.2486 315.655 62.3488 313.932 63.1183C312.209 63.9031 310.131 64.2955 307.7 64.2955Z" fill="white"/>
</g>
<defs>
<clipPath id="clip0_503_6">
<rect width="333" height="64" fill="white"/>
</clipPath>
</defs>
</svg>
