<svg width="24" height="54" viewBox="0 0 64 64" fill="none" xmlns="http://www.w3.org/2000/svg">
<rect x="30" y="2" width="42.4263" height="42.4263" transform="rotate(45 30 2)" fill="black"/>
<path d="M26.9091 40.3295C25.7955 40.3295 24.803 40.1364 23.9318 39.75C23.0606 39.3561 22.3712 38.7765 21.8636 38.0114C21.3636 37.2386 21.1136 36.2765 21.1136 35.125C21.1136 34.1553 21.2917 33.3409 21.6477 32.6818C22.0038 32.0227 22.4886 31.4924 23.1023 31.0909C23.7159 30.6894 24.4129 30.3864 25.1932 30.1818C25.9811 29.9773 26.8068 29.8333 27.6705 29.75C28.6856 29.6439 29.5038 29.5455 30.125 29.4545C30.7462 29.3561 31.197 29.2121 31.4773 29.0227C31.7576 28.8333 31.8977 28.553 31.8977 28.1818V28.1136C31.8977 27.3939 31.6705 26.8371 31.2159 26.4432C30.7689 26.0492 30.1326 25.8523 29.3068 25.8523C28.4356 25.8523 27.7424 26.0455 27.2273 26.4318C26.7121 26.8106 26.3712 27.2879 26.2045 27.8636L21.7273 27.5C21.9545 26.4394 22.4015 25.5227 23.0682 24.75C23.7348 23.9697 24.5947 23.3712 25.6477 22.9545C26.7083 22.5303 27.9356 22.3182 29.3295 22.3182C30.2992 22.3182 31.2273 22.4318 32.1136 22.6591C33.0076 22.8864 33.7992 23.2386 34.4886 23.7159C35.1856 24.1932 35.7348 24.8068 36.1364 25.5568C36.5379 26.2992 36.7386 27.1894 36.7386 28.2273V40H32.1477V37.5795H32.0114C31.7311 38.125 31.3561 38.6061 30.8864 39.0227C30.4167 39.4318 29.8523 39.7538 29.1932 39.9886C28.5341 40.2159 27.7727 40.3295 26.9091 40.3295ZM28.2955 36.9886C29.0076 36.9886 29.6364 36.8485 30.1818 36.5682C30.7273 36.2803 31.1553 35.8939 31.4659 35.4091C31.7765 34.9242 31.9318 34.375 31.9318 33.7614V31.9091C31.7803 32.0076 31.572 32.0985 31.3068 32.1818C31.0492 32.2576 30.7576 32.3295 30.4318 32.3977C30.1061 32.4583 29.7803 32.5152 29.4545 32.5682C29.1288 32.6136 28.8333 32.6553 28.5682 32.6932C28 32.7765 27.5038 32.9091 27.0795 33.0909C26.6553 33.2727 26.3258 33.5189 26.0909 33.8295C25.8561 34.1326 25.7386 34.5114 25.7386 34.9659C25.7386 35.625 25.9773 36.1288 26.4545 36.4773C26.9394 36.8182 27.553 36.9886 28.2955 36.9886Z" fill="white"/>
</svg>
