<svg width="64" height="64" viewBox="0 0 64 64" fill="none" xmlns="http://www.w3.org/2000/svg">
<g clip-path="url(#clip0_511_67)">
<path d="M29.9303 4.04759L4.04378 29.9128C2.65207 31.3034 2.65207 33.5494 4.04378 34.9399L29.9303 60.8052C31.322 62.1957 33.5698 62.1957 34.9615 60.8052L45.8154 49.9602C47.0617 48.7149 47.0617 46.6958 45.8154 45.4504C44.569 44.2051 42.5482 44.2051 41.3019 45.4504L33.0737 53.6719C32.7273 54.018 32.2015 54.018 31.8551 53.6719L11.1829 33.0167C10.8365 32.6705 10.8365 32.1453 11.1829 31.7991L31.8551 11.1439C32.2015 10.7978 32.7273 10.7978 33.0737 11.1439L41.3019 19.3654C42.5482 20.6107 44.569 20.6107 45.8154 19.3654C47.0617 18.12 47.0617 16.1009 45.8154 14.8556L34.9627 4.01182C33.5653 2.65136 31.3167 2.66237 29.9303 4.04759Z" fill="url(#paint0_linear_511_67)"/>
<path d="M29.9303 4.04759L4.04378 29.9128C2.65207 31.3034 2.65207 33.5494 4.04378 34.9399L29.9303 60.8052C31.322 62.1957 33.5698 62.1957 34.9615 60.8052L45.8154 49.9602C47.0617 48.7149 47.0617 46.6958 45.8154 45.4504C44.569 44.2051 42.5482 44.2051 41.3019 45.4504L33.0737 53.6719C32.7273 54.018 32.2015 54.018 31.8551 53.6719L11.1829 33.0167C10.8365 32.6705 10.8365 32.1453 11.1829 31.7991L31.8551 11.1439C32.7177 10.4004 34.1249 8.89429 36.1915 8.54205C37.7274 8.28027 39.4065 8.85644 41.2288 10.2706C40.0105 9.05321 37.9218 6.96696 34.9627 4.01182C33.5653 2.65136 31.3167 2.66237 29.9303 4.04759Z" fill="url(#paint1_linear_511_67)"/>
<path d="M48.3207 43.0452C49.5671 44.2905 51.5879 44.2905 52.8343 43.0452L60.8406 35.0454C62.2323 33.6549 62.2323 31.4089 60.8408 30.0185L52.7646 21.9776C51.5153 20.7338 49.4939 20.7356 48.2468 21.9816C47.0004 23.227 47.0004 25.2461 48.2468 26.4914L53.7014 31.9416C54.0478 32.2877 54.0478 32.813 53.7014 33.1591L48.3207 38.5354C47.0744 39.7807 47.0744 41.7998 48.3207 43.0452Z" fill="url(#paint2_linear_511_67)"/>
<path d="M32.5753 39.5395C36.4354 39.5395 39.5647 36.4128 39.5647 32.5559C39.5647 28.6989 36.4354 25.5723 32.5753 25.5723C28.7152 25.5723 25.5859 28.6989 25.5859 32.5559C25.5859 36.4128 28.7152 39.5395 32.5753 39.5395Z" fill="url(#paint3_linear_511_67)"/>
</g>
<defs>
<linearGradient id="paint0_linear_511_67" x1="6958.48" y1="3.0004" x2="13256" y2="3848.8" gradientUnits="userSpaceOnUse">
<stop stop-color="#4285EB"/>
<stop offset="1" stop-color="#2EC7FF"/>
</linearGradient>
<linearGradient id="paint1_linear_511_67" x1="7803.17" y1="3.00002" x2="4692.77" y2="16078.4" gradientUnits="userSpaceOnUse">
<stop stop-color="#29CDFF"/>
<stop offset="0.378601" stop-color="#148EFF"/>
<stop offset="1" stop-color="#0A60FF"/>
</linearGradient>
<linearGradient id="paint2_linear_511_67" x1="2647.15" y1="-740.669" x2="-1399.96" y2="5588.68" gradientUnits="userSpaceOnUse">
<stop stop-color="#FA816E"/>
<stop offset="0.414726" stop-color="#F74A5C"/>
<stop offset="1" stop-color="#F51D2C"/>
</linearGradient>
<linearGradient id="paint3_linear_511_67" x1="2463.58" y1="-1250.58" x2="1116.99" y2="4135.99" gradientUnits="userSpaceOnUse">
<stop stop-color="#FA8E7D"/>
<stop offset="0.512635" stop-color="#F74A5C"/>
<stop offset="1" stop-color="#F51D2C"/>
</linearGradient>
<clipPath id="clip0_511_67">
<rect width="59" height="59" fill="white" transform="translate(3 3)"/>
</clipPath>
</defs>
</svg>
