<svg width="64" height="64" viewBox="0 0 64 64" fill="none" xmlns="http://www.w3.org/2000/svg">
<g clip-path="url(#clip0_511_40)">
<path d="M7.06012 12.7957C6.93937 9.2602 9.641 6 13.2928 6H50.7119C54.3636 6 57.0652 9.2602 56.9445 12.7957C56.8285 16.1919 56.9791 20.5912 58.065 24.1783C59.1544 27.7765 60.9914 30.0509 64 30.3431V33.6569C60.9914 33.9491 59.1544 36.2235 58.065 39.8217C56.9791 43.4088 56.8285 47.8081 56.9445 51.2044C57.0652 54.7398 54.3636 58 50.7119 58H13.2928C9.641 58 6.93937 54.7398 7.06025 51.2044C7.17612 47.8081 7.0255 43.4088 5.9395 39.8217C4.85025 36.2235 3.00875 33.9491 0 33.6569V30.3431C3.00863 30.0509 4.85025 27.7765 5.9395 24.1783C7.0255 20.5912 7.17612 16.1919 7.06012 12.7957Z" fill="url(#paint0_linear_511_40)"/>
<g filter="url(#filter0_d_511_40)">
<path d="M33.388 45.8229C39.3002 45.8229 42.8628 42.8714 42.8628 38.0031C42.8628 34.3232 40.3208 31.6591 36.5463 31.2374V31.0841C39.3194 30.6241 41.4955 27.9983 41.4955 25.066C41.4955 20.8877 38.2603 18.166 33.3303 18.166H22.2378V45.8229H33.388ZM26.5515 21.6735H32.2904C35.4102 21.6735 37.1818 23.0917 37.1818 25.66C37.1818 28.4008 35.1213 29.9341 31.3853 29.9341H26.5515V21.6735ZM26.5515 42.3156V33.2116H32.2518C36.3344 33.2116 38.4528 34.7448 38.4528 37.7348C38.4528 40.7247 36.3923 42.3156 32.5022 42.3156H26.5515Z" fill="url(#paint1_linear_511_40)"/>
<path d="M33.388 45.8229C39.3002 45.8229 42.8628 42.8714 42.8628 38.0031C42.8628 34.3232 40.3208 31.6591 36.5463 31.2374V31.0841C39.3194 30.6241 41.4955 27.9983 41.4955 25.066C41.4955 20.8877 38.2603 18.166 33.3303 18.166H22.2378V45.8229H33.388ZM26.5515 21.6735H32.2904C35.4102 21.6735 37.1818 23.0917 37.1818 25.66C37.1818 28.4008 35.1213 29.9341 31.3853 29.9341H26.5515V21.6735ZM26.5515 42.3156V33.2116H32.2518C36.3344 33.2116 38.4528 34.7448 38.4528 37.7348C38.4528 40.7247 36.3923 42.3156 32.5022 42.3156H26.5515Z" stroke="white"/>
</g>
</g>
<defs>
<filter id="filter0_d_511_40" x="5.73779" y="5.66602" width="53.625" height="60.6572" filterUnits="userSpaceOnUse" color-interpolation-filters="sRGB">
<feFlood flood-opacity="0" result="BackgroundImageFix"/>
<feColorMatrix in="SourceAlpha" type="matrix" values="0 0 0 0 0 0 0 0 0 0 0 0 0 0 0 0 0 0 127 0" result="hardAlpha"/>
<feOffset dy="4"/>
<feGaussianBlur stdDeviation="8"/>
<feColorMatrix type="matrix" values="0 0 0 0 0 0 0 0 0 0 0 0 0 0 0 0 0 0 0.15 0"/>
<feBlend mode="normal" in2="BackgroundImageFix" result="effect1_dropShadow_511_40"/>
<feBlend mode="normal" in="SourceGraphic" in2="effect1_dropShadow_511_40" result="shape"/>
</filter>
<linearGradient id="paint0_linear_511_40" x1="9.50987" y1="7.37622" x2="66.2708" y2="51.5665" gradientUnits="userSpaceOnUse">
<stop stop-color="#9013FE"/>
<stop offset="1" stop-color="#6610F2"/>
</linearGradient>
<linearGradient id="paint1_linear_511_40" x1="24.1887" y1="19.9864" x2="37.0525" y2="41.3236" gradientUnits="userSpaceOnUse">
<stop stop-color="white"/>
<stop offset="1" stop-color="#F1E5FC"/>
</linearGradient>
<clipPath id="clip0_511_40">
<rect width="64" height="52" fill="white" transform="translate(0 6)"/>
</clipPath>
</defs>
</svg>
