<svg width="64" height="34" viewBox="0 0 64 64" fill="none" xmlns="http://www.w3.org/2000/svg">
<g clip-path="url(#clip0_511_76)">
<g clip-path="url(#clip1_511_76)">
<path d="M0 0H64V64H0V0Z" fill="#F0DB4F"/>
<path d="M58.762 48.7359C58.2935 45.8157 56.3893 43.364 50.7498 41.0766C48.7909 40.1762 46.6068 39.5314 45.9559 38.0469C45.7247 37.183 45.6943 36.6964 45.8403 36.1732C46.2601 34.4758 48.2859 33.9465 49.892 34.4332C50.9262 34.78 51.9057 35.577 52.4958 36.8484C55.2578 35.0599 55.2517 35.072 57.1802 33.8432C56.4745 32.7481 56.0973 32.2431 55.635 31.7747C53.9741 29.9192 51.711 28.9641 48.0912 29.0371C47.4646 29.1162 46.832 29.2013 46.2053 29.2804C44.3985 29.7367 42.6768 30.6858 41.6669 31.9573C38.6373 35.3945 39.5011 41.4112 43.1878 43.8873C46.8198 46.6128 52.1551 47.2333 52.8365 49.7823C53.4996 52.9033 50.543 53.9131 47.6046 53.5542C45.4388 53.104 44.2343 52.0029 42.9323 50.0014C40.5354 51.3884 40.5354 51.3884 38.0715 52.8059C38.6556 54.0835 39.27 54.6614 40.2495 55.7687C44.8852 60.4713 56.4867 60.2401 58.5674 53.1223C58.6525 52.8789 59.2122 51.2484 58.762 48.7359ZM34.7924 29.4142H28.8061C28.8061 34.5853 28.7818 39.7199 28.7818 44.891C28.7818 48.1823 28.9521 51.1998 28.4168 52.1245C27.5407 53.9434 25.2715 53.7184 24.2373 53.3655C23.1848 52.8484 22.6495 52.1123 22.029 51.072C21.8586 50.7739 21.7309 50.5427 21.6882 50.5245C20.0639 51.5161 18.4456 52.5138 16.8213 53.5055C17.6305 55.1663 18.8228 56.6081 20.3498 57.545C22.6312 58.9138 25.6973 59.3336 28.9035 58.5974C30.9902 57.9891 32.7909 56.7298 33.7338 54.8135C35.0966 52.3009 34.8046 49.2591 34.7924 45.8948C34.8228 40.4074 34.7924 34.9199 34.7924 29.4142Z" fill="#323330"/>
</g>
</g>
<defs>
<clipPath id="clip0_511_76">
<rect width="64" height="64" fill="white"/>
</clipPath>
<clipPath id="clip1_511_76">
<rect width="64" height="64" fill="white"/>
</clipPath>
</defs>
</svg>
