<svg width="100" height="100" viewBox="0 0 100 100" fill="none" xmlns="http://www.w3.org/2000/svg">
<g clip-path="url(#clip0_523_5)">
<rect width="100" height="100" rx="6" fill="white"/>
<path d="M68.75 87.89H45.21L33 63.69H27.5V87.89H5.5V10.89H36.3C44.66 10.89 51.6267 13.3833 57.2 18.37C62.7 23.2833 65.45 29.81 65.45 37.95C65.45 42.4967 64.3867 46.6033 62.26 50.27C60.2067 53.9367 57.31 56.9067 53.57 59.18L68.75 87.89ZM35.86 31.13H27.5V45.43H35.86C38.2067 45.5033 40.04 44.9167 41.36 43.67C42.7533 42.4233 43.45 40.6633 43.45 38.39C43.45 36.1167 42.7533 34.3567 41.36 33.11C40.04 31.79 38.2067 31.13 35.86 31.13Z" fill="#00010B"/>
<path d="M95.2342 86.02C92.8142 88.44 89.8442 89.65 86.3242 89.65C82.8042 89.65 79.7976 88.44 77.3042 86.02C74.8842 83.5267 73.6742 80.52 73.6742 77C73.6742 73.48 74.8842 70.51 77.3042 68.09C79.7976 65.5967 82.8042 64.35 86.3242 64.35C89.8442 64.35 92.8142 65.5967 95.2342 68.09C97.7276 70.51 98.9742 73.48 98.9742 77C98.9742 80.52 97.7276 83.5267 95.2342 86.02Z" fill="#CBACF9"/>
</g>
<defs>
<clipPath id="clip0_523_5">
<rect width="100" height="100" rx="6" fill="white"/>
</clipPath>
</defs>
</svg>
