<svg width="182" height="64" viewBox="0 0 182 64" fill="none" xmlns="http://www.w3.org/2000/svg">
<path d="M172.178 9.43616C173.263 10.5275 174.544 11.0729 176.021 11.0729C177.544 11.0729 178.848 10.5275 179.933 9.43616C181.018 8.34514 181.56 7.05695 181.56 5.57131C181.56 4.08567 181.018 2.78566 179.933 1.67127C178.848 0.557192 177.544 0 176.021 0C174.544 0 173.263 0.557192 172.178 1.67127C171.093 2.78566 170.551 4.08567 170.551 5.57131C170.551 7.05695 171.093 8.34514 172.178 9.43616ZM55.3681 23.6811C55.3681 23.7951 55.2758 23.8877 55.162 23.8877H47.5438V38.3728C47.5438 39.58 47.844 40.4621 48.444 41.0193C49.0441 41.5764 49.921 41.8898 51.0751 41.9595C52.1309 42.0232 53.4184 42.019 54.9378 41.9465L54.9768 41.9447L55.047 41.9413L55.1511 41.9359C55.2691 41.9298 55.3681 42.0241 55.3681 42.1424V49.8879C55.3681 49.9387 55.3494 49.9877 55.3156 50.0255C55.2819 50.0633 55.2353 50.0874 55.185 50.093L55.0452 50.1081C49.0768 50.7481 44.857 50.156 42.3854 48.3316C39.8696 46.4744 38.6117 43.1549 38.6117 38.3728V23.8877H32.794C32.7394 23.8877 32.687 23.8659 32.6483 23.8273C32.6097 23.7886 32.588 23.7361 32.5879 23.6814V15.4585C32.5879 15.3448 32.6802 15.2523 32.794 15.2523H38.6117V9.50077C38.6117 9.33698 38.7082 9.18896 38.8574 9.12284L47.2545 5.4057C47.2859 5.39174 47.3202 5.38586 47.3544 5.3886C47.3886 5.39134 47.4216 5.40262 47.4504 5.4214C47.4791 5.44018 47.5027 5.46587 47.5191 5.49613C47.5354 5.5264 47.5439 5.56027 47.5438 5.59467V15.2523H55.162C55.2758 15.2523 55.3681 15.3448 55.3681 15.4585V23.6811ZM71.5646 21.2409C72.3956 19.0125 73.7688 17.3409 75.6845 16.2268C77.4375 15.2071 79.3744 14.6538 81.4947 14.5677C81.5973 14.5631 81.7543 14.5601 81.8811 14.5583C81.9958 14.5564 82.0893 14.6493 82.0893 14.7639V24.2137C82.0893 24.4109 81.9183 24.5628 81.7222 24.5449C79.1465 24.3108 76.8338 24.8807 74.7843 26.255C72.638 27.6943 71.5646 30.0853 71.5646 33.4279V49.8655C71.5646 49.9203 71.5429 49.9728 71.5043 50.0115C71.4656 50.0503 71.4132 50.072 71.3586 50.072H62.8386C62.784 50.072 62.7316 50.0503 62.6929 50.0115C62.6543 49.9728 62.6325 49.9203 62.6325 49.8655V15.4582C62.6325 15.3442 62.7248 15.2519 62.8386 15.2519H71.3586C71.4723 15.2519 71.5646 15.3442 71.5646 15.4582V21.2409Z" fill="white"/>
<path fill-rule="evenodd" clip-rule="evenodd" d="M113.799 15.2515C113.745 15.2515 113.692 15.2732 113.654 15.3119C113.615 15.3506 113.593 15.4031 113.593 15.4578V19.3602C110.916 15.971 107.154 14.2767 102.307 14.2767C97.6907 14.2767 93.7327 16.0523 90.4319 19.6038C87.1315 23.1556 85.4814 27.5082 85.4814 32.6616C85.4814 37.8149 87.1315 42.1675 90.4319 45.7193C93.7327 49.2709 97.6907 51.0468 102.307 51.0468C107.154 51.0468 110.916 49.3521 113.593 45.9629V49.8654C113.593 49.9794 113.685 50.0716 113.799 50.0716H122.319C122.346 50.0717 122.373 50.0663 122.398 50.056C122.423 50.0456 122.446 50.0305 122.465 50.0113C122.484 49.9921 122.499 49.9694 122.509 49.9444C122.52 49.9193 122.525 49.8925 122.525 49.8654V15.4578C122.525 15.4031 122.503 15.3506 122.465 15.3119C122.426 15.2732 122.374 15.2515 122.319 15.2515H113.799ZM97.113 39.7649C98.9135 41.5757 101.198 42.4811 103.968 42.4811C106.738 42.4811 109.034 41.5642 110.857 39.7303C112.681 37.8965 113.592 35.5403 113.592 32.6616C113.592 29.7831 112.681 27.4269 110.857 25.5931C109.034 23.7592 106.738 22.8423 103.968 22.8423C101.198 22.8423 98.9135 23.7592 97.113 25.5934C95.3129 27.4269 94.4126 29.7831 94.4126 32.6616C94.4126 35.5403 95.3129 37.908 97.113 39.7649ZM161.32 19.6038C158.02 16.052 154.038 14.2764 149.376 14.2764C144.529 14.2764 140.79 15.971 138.159 19.3599V15.4581C138.159 15.4034 138.137 15.3509 138.098 15.3122C138.06 15.2736 138.007 15.2518 137.953 15.2518H129.433C129.378 15.2518 129.326 15.2736 129.287 15.3122C129.249 15.3509 129.227 15.4034 129.227 15.4581V63.7936C129.227 63.9077 129.319 64.0002 129.433 64.0002H137.953C138.008 64.0002 138.06 63.9784 138.099 63.9397C138.137 63.901 138.159 63.8484 138.159 63.7936V45.9632C140.79 49.3525 144.529 51.0471 149.376 51.0471C154.038 51.0471 158.02 49.2712 161.32 45.7196C164.621 42.1678 166.271 37.8152 166.271 32.6619C166.271 27.5085 164.621 23.1559 161.32 19.6041V19.6038ZM140.859 39.7652C142.659 41.576 144.944 42.4814 147.713 42.4814C150.483 42.4814 152.78 41.5645 154.603 39.7307C156.426 37.8968 157.338 35.5406 157.338 32.6619C157.338 29.7834 156.426 27.4272 154.603 25.5934C152.78 23.7595 150.483 22.8426 147.713 22.8426C144.944 22.8426 142.659 23.7595 140.859 25.5937C139.058 27.4272 138.158 29.7834 138.158 32.6619C138.158 35.5406 139.058 37.9083 140.859 39.7652Z" fill="white"/>
<path d="M171.796 50.0725C171.742 50.0725 171.689 50.0508 171.651 50.012C171.612 49.9733 171.59 49.9207 171.59 49.866V15.4587C171.59 15.3446 171.683 15.2521 171.796 15.2521H180.316C180.43 15.2521 180.522 15.3446 180.522 15.4587V49.866C180.522 49.9207 180.501 49.9733 180.462 50.012C180.423 50.0508 180.371 50.0725 180.316 50.0725H171.796ZM12.3578 27.4036C11.1344 26.8233 10.5228 26.069 10.5228 25.1402C10.5228 24.2582 10.9035 23.5618 11.6651 23.051C12.4268 22.5405 13.3848 22.2851 14.5386 22.2851C16.7515 22.2851 18.4234 23.1526 19.5536 24.8876C19.5911 24.9466 19.6484 24.9902 19.7152 25.0107C19.782 25.0311 19.8539 25.0271 19.9179 24.9992L27.4538 21.646C27.4803 21.6343 27.504 21.6171 27.5234 21.5956C27.5428 21.574 27.5574 21.5486 27.5663 21.521C27.5751 21.4933 27.578 21.4641 27.5748 21.4353C27.5716 21.4065 27.5623 21.3786 27.5476 21.3536C27.4612 21.2061 27.3728 21.0596 27.2825 20.9144C25.9907 18.8719 24.3198 17.3505 22.2246 16.1915C19.9164 14.9145 17.3546 14.2764 14.5386 14.2764C10.7997 14.2764 7.67236 15.2631 5.15656 17.2361C2.64076 19.2092 1.38287 21.9136 1.38287 25.3492C1.38287 27.6241 1.99472 29.5162 3.21782 31.0249C4.44122 32.5339 5.9297 33.6364 7.68386 34.3328C9.43803 35.0293 11.1922 35.6095 12.9463 36.0739C14.7002 36.5383 16.189 37.0606 17.4124 37.6408C18.6355 38.2211 19.247 38.9757 19.247 39.9042C19.247 41.9006 17.6545 42.8988 14.4696 42.8988C11.4376 42.8988 9.33666 41.7717 8.16651 39.518C8.06605 39.3242 7.83607 39.2356 7.63696 39.3245L0.122239 42.6734C0.0970864 42.6846 0.0744261 42.7007 0.0556021 42.7208C0.0367782 42.7408 0.0221742 42.7645 0.0126614 42.7904C0.00314864 42.8163 -0.00107409 42.8438 0.00023171 42.8713C0.00153751 42.8988 0.00834399 42.9258 0.0202615 42.9507C0.0508239 43.0137 0.0829075 43.0799 0.106208 43.1269C2.73246 48.4067 7.52016 51.0468 14.4696 51.0468C18.4394 51.0468 21.7513 50.0834 24.4054 48.1565C27.0598 46.2298 28.387 43.479 28.387 39.9042C28.387 37.5365 27.7752 35.5631 26.5521 33.9846C25.3287 32.4062 23.8402 31.2803 22.086 30.6072C20.3669 29.9451 18.6097 29.387 16.8238 28.9359C15.0697 28.4946 13.5809 27.9838 12.3578 27.4036Z" fill="white"/>
</svg>
