<svg width="45" height="60" viewBox="0 0 64 64" fill="none" xmlns="http://www.w3.org/2000/svg">
<g clip-path="url(#clip0_503_19)">
<path d="M0 22.1866C0 11.7277 0 6.49841 3.24152 3.24921C6.48303 0 11.6999 0 22.134 0H41.7144C52.1486 0 57.3655 0 60.607 3.24921C63.8485 6.49841 63.8485 11.7277 63.8485 22.1866V41.8134C63.8485 52.2723 63.8485 57.5016 60.607 60.7508C57.3655 64 52.1486 64 41.7144 64H22.134C11.6999 64 6.48303 64 3.24152 60.7508C0 57.5016 0 52.2723 0 41.8134V22.1866Z" fill="#4945FF"/>
<path fill-rule="evenodd" clip-rule="evenodd" d="M44.0554 19.4131H22.5596V30.3997H33.5204V41.3862H44.481V19.8397C44.481 19.6042 44.2903 19.4131 44.0554 19.4131Z" fill="white"/>
<path d="M22.5595 30.3997H33.0945C33.3297 30.3997 33.5204 30.5907 33.5204 30.8262V41.3862H22.9854C22.7502 41.3862 22.5595 41.1954 22.5595 40.9597V30.3997ZM33.5204 41.3862H44.4809L33.8836 52.0087C33.8539 52.0386 33.816 52.059 33.7747 52.0672C33.7334 52.0755 33.6906 52.0713 33.6517 52.0552C33.6128 52.039 33.5796 52.0117 33.5562 51.9766C33.5328 51.9415 33.5203 51.9003 33.5204 51.8581V41.3862ZM22.5595 30.3997H12.1131C12.071 30.3996 12.0299 30.3871 11.9949 30.3636C11.96 30.3402 11.9327 30.3069 11.9166 30.268C11.9005 30.229 11.8963 30.1862 11.9044 30.1448C11.9126 30.1035 11.9328 30.0654 11.9625 30.0356L22.5598 19.4131L22.5595 30.3997Z" fill="#9593FF"/>
</g>
<defs>
<clipPath id="clip0_503_19">
<rect width="64" height="64" fill="white"/>
</clipPath>
</defs>
</svg>
